<mxfile host="app.diagrams.net" modified="2021-02-19T13:08:45.283Z" agent="5.0 (Macintosh; Intel Mac OS X 11_1_0) AppleWebKit/537.36 (KHTML, like Gecko) Chrome/88.0.4324.150 Safari/537.36" etag="gDtMCgomwVVs-8gRk5ws" version="14.2.9" type="github">
  <diagram id="bskKvsHge31UiA6hYzuj" name="Page-1">
    <mxGraphModel dx="1426" dy="905" grid="1" gridSize="10" guides="1" tooltips="1" connect="1" arrows="1" fold="1" page="1" pageScale="1" pageWidth="3300" pageHeight="4681" math="0" shadow="0">
      <root>
        <mxCell id="0" />
        <mxCell id="1" parent="0" />
        <mxCell id="gw_4AoOqEpiKTLtsriPl-2" value="upload()" style="rounded=0;whiteSpace=wrap;html=1;" vertex="1" parent="1">
          <mxGeometry x="110" y="50" width="140" height="30" as="geometry" />
        </mxCell>
        <mxCell id="gw_4AoOqEpiKTLtsriPl-3" value="" style="rounded=0;whiteSpace=wrap;html=1;" vertex="1" parent="1">
          <mxGeometry x="175" y="80" width="10" height="730" as="geometry" />
        </mxCell>
        <mxCell id="gw_4AoOqEpiKTLtsriPl-4" value="uploadExcelFile()" style="rounded=0;whiteSpace=wrap;html=1;" vertex="1" parent="1">
          <mxGeometry x="340" y="50" width="140" height="30" as="geometry" />
        </mxCell>
        <mxCell id="gw_4AoOqEpiKTLtsriPl-5" value="" style="rounded=0;whiteSpace=wrap;html=1;" vertex="1" parent="1">
          <mxGeometry x="405" y="80" width="10" height="730" as="geometry" />
        </mxCell>
        <mxCell id="gw_4AoOqEpiKTLtsriPl-6" value="storageService.upload()" style="rounded=0;whiteSpace=wrap;html=1;" vertex="1" parent="1">
          <mxGeometry x="675" y="50" width="140" height="30" as="geometry" />
        </mxCell>
        <mxCell id="gw_4AoOqEpiKTLtsriPl-7" value="" style="rounded=0;whiteSpace=wrap;html=1;" vertex="1" parent="1">
          <mxGeometry x="740" y="80" width="10" height="730" as="geometry" />
        </mxCell>
        <mxCell id="gw_4AoOqEpiKTLtsriPl-8" value="insertBatchOperateUpload()" style="rounded=0;whiteSpace=wrap;html=1;" vertex="1" parent="1">
          <mxGeometry x="892.5" y="50" width="165" height="30" as="geometry" />
        </mxCell>
        <mxCell id="gw_4AoOqEpiKTLtsriPl-9" value="" style="rounded=0;whiteSpace=wrap;html=1;" vertex="1" parent="1">
          <mxGeometry x="970" y="80" width="10" height="730" as="geometry" />
        </mxCell>
        <mxCell id="gw_4AoOqEpiKTLtsriPl-10" value="" style="endArrow=classic;html=1;exitX=0.8;exitY=0.052;exitDx=0;exitDy=0;exitPerimeter=0;entryX=0.1;entryY=0.051;entryDx=0;entryDy=0;entryPerimeter=0;" edge="1" parent="1" source="gw_4AoOqEpiKTLtsriPl-3" target="gw_4AoOqEpiKTLtsriPl-5">
          <mxGeometry width="50" height="50" relative="1" as="geometry">
            <mxPoint x="770" y="500" as="sourcePoint" />
            <mxPoint x="820" y="450" as="targetPoint" />
          </mxGeometry>
        </mxCell>
        <mxCell id="gw_4AoOqEpiKTLtsriPl-11" value="batch/operate/upload" style="text;html=1;align=center;verticalAlign=middle;resizable=0;points=[];autosize=1;" vertex="1" parent="1">
          <mxGeometry x="225" y="90" width="130" height="20" as="geometry" />
        </mxCell>
        <mxCell id="gw_4AoOqEpiKTLtsriPl-12" value="" style="endArrow=classic;html=1;exitX=0.8;exitY=0.052;exitDx=0;exitDy=0;exitPerimeter=0;entryX=0.1;entryY=0.051;entryDx=0;entryDy=0;entryPerimeter=0;" edge="1" parent="1">
          <mxGeometry width="50" height="50" relative="1" as="geometry">
            <mxPoint x="184" y="171.96000000000004" as="sourcePoint" />
            <mxPoint x="407" y="171.23000000000002" as="targetPoint" />
          </mxGeometry>
        </mxCell>
        <mxCell id="gw_4AoOqEpiKTLtsriPl-13" value="batch/operate/validateClazz" style="text;html=1;align=center;verticalAlign=middle;resizable=0;points=[];autosize=1;" vertex="1" parent="1">
          <mxGeometry x="211" y="144" width="160" height="20" as="geometry" />
        </mxCell>
        <mxCell id="gw_4AoOqEpiKTLtsriPl-14" value="" style="endArrow=classic;html=1;exitX=0.8;exitY=0.052;exitDx=0;exitDy=0;exitPerimeter=0;entryX=0.1;entryY=0.051;entryDx=0;entryDy=0;entryPerimeter=0;" edge="1" parent="1">
          <mxGeometry width="50" height="50" relative="1" as="geometry">
            <mxPoint x="183" y="232.96000000000004" as="sourcePoint" />
            <mxPoint x="406" y="232.23000000000002" as="targetPoint" />
          </mxGeometry>
        </mxCell>
        <mxCell id="gw_4AoOqEpiKTLtsriPl-15" value="batch/operate/uploadChangeClazzFile" style="text;html=1;align=center;verticalAlign=middle;resizable=0;points=[];autosize=1;" vertex="1" parent="1">
          <mxGeometry x="180" y="205" width="220" height="20" as="geometry" />
        </mxCell>
        <mxCell id="gw_4AoOqEpiKTLtsriPl-16" value="" style="endArrow=classic;html=1;exitX=0.8;exitY=0.052;exitDx=0;exitDy=0;exitPerimeter=0;entryX=-0.4;entryY=0.274;entryDx=0;entryDy=0;entryPerimeter=0;" edge="1" parent="1" target="gw_4AoOqEpiKTLtsriPl-7">
          <mxGeometry width="50" height="50" relative="1" as="geometry">
            <mxPoint x="419" y="279.96000000000004" as="sourcePoint" />
            <mxPoint x="600" y="320" as="targetPoint" />
          </mxGeometry>
        </mxCell>
        <mxCell id="gw_4AoOqEpiKTLtsriPl-17" value="http://internal-storage.genshuixue.com/webupload.php" style="text;html=1;align=center;verticalAlign=middle;resizable=0;points=[];autosize=1;" vertex="1" parent="1">
          <mxGeometry x="429" y="252" width="300" height="20" as="geometry" />
        </mxCell>
        <mxCell id="gw_4AoOqEpiKTLtsriPl-18" value="" style="shape=curlyBracket;whiteSpace=wrap;html=1;rounded=1;" vertex="1" parent="1">
          <mxGeometry x="150" y="170" width="20" height="66" as="geometry" />
        </mxCell>
        <mxCell id="gw_4AoOqEpiKTLtsriPl-19" value="批量调课调班" style="text;html=1;strokeColor=none;fillColor=none;align=center;verticalAlign=middle;whiteSpace=wrap;rounded=0;" vertex="1" parent="1">
          <mxGeometry x="110" y="193" width="40" height="20" as="geometry" />
        </mxCell>
        <mxCell id="gw_4AoOqEpiKTLtsriPl-20" value="批量操作" style="text;html=1;strokeColor=none;fillColor=none;align=center;verticalAlign=middle;whiteSpace=wrap;rounded=0;" vertex="1" parent="1">
          <mxGeometry x="117" y="110" width="53" height="23" as="geometry" />
        </mxCell>
        <mxCell id="gw_4AoOqEpiKTLtsriPl-21" value="" style="endArrow=classic;html=1;exitX=0.8;exitY=0.052;exitDx=0;exitDy=0;exitPerimeter=0;entryX=-0.3;entryY=0.379;entryDx=0;entryDy=0;entryPerimeter=0;" edge="1" parent="1" target="gw_4AoOqEpiKTLtsriPl-9">
          <mxGeometry width="50" height="50" relative="1" as="geometry">
            <mxPoint x="420.5" y="357.96000000000004" as="sourcePoint" />
            <mxPoint x="737.5" y="358.02" as="targetPoint" />
          </mxGeometry>
        </mxCell>
        <mxCell id="gw_4AoOqEpiKTLtsriPl-22" value="insertBatchOperateUpload" style="text;html=1;align=center;verticalAlign=middle;resizable=0;points=[];autosize=1;" vertex="1" parent="1">
          <mxGeometry x="500.5" y="330" width="160" height="20" as="geometry" />
        </mxCell>
        <mxCell id="gw_4AoOqEpiKTLtsriPl-23" value="" style="endArrow=classic;html=1;exitX=0.8;exitY=0.052;exitDx=0;exitDy=0;exitPerimeter=0;entryX=-0.3;entryY=0.379;entryDx=0;entryDy=0;entryPerimeter=0;" edge="1" parent="1">
          <mxGeometry width="50" height="50" relative="1" as="geometry">
            <mxPoint x="423.5" y="424.96000000000004" as="sourcePoint" />
            <mxPoint x="970" y="423.6700000000001" as="targetPoint" />
          </mxGeometry>
        </mxCell>
        <mxCell id="gw_4AoOqEpiKTLtsriPl-24" value="insertBatchOperateUpload" style="text;html=1;align=center;verticalAlign=middle;resizable=0;points=[];autosize=1;" vertex="1" parent="1">
          <mxGeometry x="503.5" y="397" width="160" height="20" as="geometry" />
        </mxCell>
        <mxCell id="gw_4AoOqEpiKTLtsriPl-25" value="" style="endArrow=classic;html=1;exitX=0.8;exitY=0.052;exitDx=0;exitDy=0;exitPerimeter=0;entryX=-0.4;entryY=0.274;entryDx=0;entryDy=0;entryPerimeter=0;" edge="1" parent="1">
          <mxGeometry width="50" height="50" relative="1" as="geometry">
            <mxPoint x="422" y="477.96000000000004" as="sourcePoint" />
            <mxPoint x="739" y="478.02" as="targetPoint" />
          </mxGeometry>
        </mxCell>
        <mxCell id="gw_4AoOqEpiKTLtsriPl-26" value="&amp;nbsp;batchChangeClazzDao.insert，idx=0" style="text;html=1;align=center;verticalAlign=middle;resizable=0;points=[];autosize=1;" vertex="1" parent="1">
          <mxGeometry x="472" y="450" width="220" height="20" as="geometry" />
        </mxCell>
        <mxCell id="gw_4AoOqEpiKTLtsriPl-27" value="" style="shape=curlyBracket;whiteSpace=wrap;html=1;rounded=1;" vertex="1" parent="1">
          <mxGeometry x="380" y="417" width="20" height="66" as="geometry" />
        </mxCell>
        <mxCell id="gw_4AoOqEpiKTLtsriPl-28" value="批量调课调班" style="text;html=1;strokeColor=none;fillColor=none;align=center;verticalAlign=middle;whiteSpace=wrap;rounded=0;" vertex="1" parent="1">
          <mxGeometry x="340" y="440" width="40" height="20" as="geometry" />
        </mxCell>
      </root>
    </mxGraphModel>
  </diagram>
</mxfile>
